<?xml version="1.0" encoding="UTF-8"?>
<svg width="36px" height="31px" viewBox="0 0 36 31" version="1.1" xmlns="http://www.w3.org/2000/svg" xmlns:xlink="http://www.w3.org/1999/xlink">
    <!-- Generator: Sketch 47.1 (45422) - http://www.bohemiancoding.com/sketch -->
    <title>Fill 1</title>
    <desc>Created with Sketch.</desc>
    <defs></defs>
    <g id="Page-1" stroke="none" stroke-width="1" fill="none" fill-rule="evenodd">
        <g id="iPad" transform="translate(-50.000000, -597.000000)" fill="#6B49E9">
            <g id="Group-2" transform="translate(50.000000, 594.000000)">
                <path d="M36,12.37656 L36,13.98576 C35.9748,14.09376 35.946,14.20536 35.928,14.31696 C35.70156,16.07736 35.1288,17.77548 34.2432,19.31376 C33.4962,20.53812 32.63832,21.69156 31.68,22.75896 C30.45096,24.168 29.12796,25.49244 27.72,26.72256 C26.4276,27.84576 25.1136,28.94736 23.76,29.96256 C21.96,31.31616 20.088,32.58696 18.252,33.90096 C18.12672,34.0122 17.93808,34.0122 17.8128,33.90096 C16.1964,32.76336 14.5368,31.67616 12.9636,30.47736 C11.3076,29.21376 9.7236,27.87816 8.1252,26.51736 C6.11424,24.80664 4.30272,22.87452 2.7252,20.75736 C1.52784,19.15752 0.69696,17.31396 0.2916,15.35736 C0.1656,14.89656 0.0828,14.47536 0,14.03616 L0,12.37656 C0.0216,12.28296 0.0396,12.19296 0.0612,12.09936 C0.2196,11.37936 0.3204,10.65936 0.5472,9.93936 C1.3068,7.55688 2.94732,5.55456 5.1336,4.34136 C7.16868,3.153 9.56268,2.7354 11.88,3.16416 C14.14008,3.53748 16.20108,4.68228 17.712,6.40416 C17.78616,6.50568 17.84988,6.61404 17.9028,6.72816 C18.2952,6.33576 18.5868,6.03336 18.8928,5.74896 C22.77252,2.12376 28.79136,2.10324 32.6952,5.70216 C34.15824,7.03092 35.19216,8.76576 35.6652,10.68456 C35.8236,11.23536 35.8956,11.80416 36,12.37656" id="Fill-1"></path>
            </g>
        </g>
    </g>
</svg>